<svg width="24" height="24" viewBox="0 0 24 24" fill="none" xmlns="http://www.w3.org/2000/svg">
<path d="M7.42213 19.0703C8.25834 19.0703 8.93776 19.7488 8.93776 20.585C8.93773 21.4213 8.25822 22.0986 7.42213 22.0986C6.58603 22.0985 5.90848 21.4211 5.90846 20.585C5.90846 19.7489 6.5859 19.0704 7.42213 19.0703ZM18.6751 19.0703C19.5112 19.0705 20.1897 19.7488 20.1897 20.585C20.1897 21.4212 19.511 22.0985 18.6751 22.0986C17.839 22.0986 17.1595 21.4213 17.1594 20.585C17.1594 19.7488 17.8388 19.0703 18.6751 19.0703ZM2.87818 2.51075L4.95826 2.87013C5.25691 2.92198 5.49131 3.14753 5.55983 3.43556L5.5774 3.54689L5.81178 6.34864H19.9085C21.1314 6.34864 22.0815 7.389 21.9944 8.5879L21.9778 8.73927L21.0296 15.2979C20.8548 16.4995 19.8624 17.4041 18.6663 17.4805L18.5022 17.4854H7.5901C6.3173 17.4854 5.24871 16.5511 5.06471 15.3086L5.04518 15.1455L4.13111 4.25001L2.62233 3.98829C2.24819 3.92354 1.98676 3.59185 2.00026 3.22267L2.011 3.12208C2.07575 2.74795 2.40744 2.48651 2.77662 2.50001L2.87818 2.51075ZM6.54029 15.0205C6.58273 15.5275 6.97872 15.9253 7.47389 15.9795L7.5901 15.9854H18.5022C18.9851 15.9852 19.4004 15.6577 19.5208 15.1992L19.5442 15.082L20.4934 8.52443C20.5407 8.19763 20.3128 7.90264 19.9973 7.85548L19.9085 7.84864H5.93776L6.54029 15.0205ZM16.8987 10.0449C17.3128 10.045 17.6487 10.3808 17.6487 10.7949C17.6486 11.1745 17.3663 11.4884 17.0003 11.5381L16.8987 11.5449H14.1253C13.7112 11.5448 13.3754 11.209 13.3753 10.7949C13.3753 10.4153 13.6576 10.1015 14.0237 10.0518L14.1253 10.0449H16.8987Z" fill="black"/>
</svg>
