<svg width="24" height="24" viewBox="0 0 24 24" fill="none" xmlns="http://www.w3.org/2000/svg">
<path fill-rule="evenodd" clip-rule="evenodd" d="M5.38004 16.5762C4.04534 15.2485 3.02947 13.6301 2.40482 11.8295C1.17386 8.00569 2.81152 3.99738 6.48311 2.81529C8.2404 2.25003 10.1419 2.45344 11.733 3.35623L11.9964 3.51429L12.2645 3.35535C13.773 2.5013 15.5624 2.27309 17.2463 2.73623L17.512 2.81535C21.1847 3.9978 22.8291 8.00801 21.5937 11.8452C20.9743 13.6301 19.9584 15.2485 18.6174 16.5824C16.7927 18.3545 14.7812 19.9194 12.6218 21.2473L12.3926 21.3897C12.1598 21.5344 11.8656 21.5369 11.6304 21.3961L11.3849 21.2491C9.22254 19.9194 7.21101 18.3545 5.38004 16.5762ZM12.4361 4.98614C12.1807 5.17731 11.8308 5.181 11.5715 4.99527L11.3748 4.85416C10.0707 3.96278 8.43342 3.72328 6.93164 4.20635C4.08757 5.12201 2.79818 8.2779 3.79218 11.3662C4.33888 12.9416 5.23516 14.3695 6.40592 15.5342C8.15386 17.2318 10.0806 18.7307 12.1441 19.9997L12.0014 19.9097L12.4692 19.6155C14.1027 18.5608 15.6411 17.3641 17.0637 16.042L17.5917 15.5404C18.7688 14.3695 19.6651 12.9416 20.2065 11.3819C21.2048 8.28085 19.9098 5.12273 17.0642 4.20658C15.4874 3.70071 13.7661 3.99046 12.4361 4.98614ZM18.2458 9.47861C18.1289 8.08867 17.1918 6.9056 15.8704 6.48382C15.4856 6.36102 15.074 6.57312 14.9511 6.95757C14.8282 7.34203 15.0405 7.75325 15.4253 7.87606C16.1815 8.11744 16.7207 8.79812 16.7882 9.60104C16.8221 10.0032 17.1758 10.3018 17.5783 10.268C17.9808 10.2342 18.2797 9.88079 18.2458 9.47861Z" fill="black"/>
</svg>
