<svg width="24" height="24" viewBox="0 0 24 24" fill="none" xmlns="http://www.w3.org/2000/svg">
<path fill-rule="evenodd" clip-rule="evenodd" d="M2 8.85897C2 5.56151 4.28665 3 7.45618 3L16.5253 3.00005C18.0392 3.01705 19.4802 3.65794 20.5126 4.77344C21.5449 5.88895 22.0786 7.38171 21.9906 8.85897L21.9893 15.0959C22.0786 16.6183 21.5449 18.111 20.5126 19.2266C19.4802 20.3421 18.0392 20.9829 16.5168 21H7.45618C4.28665 21 2 18.4385 2 15.141V8.85897ZM19.4025 5.81556C18.6531 5.00586 17.6072 4.54066 16.5083 4.52832L7.45608 4.52837C5.16268 4.52837 3.51733 6.37149 3.51733 8.85891V15.141C3.51733 17.6284 5.16268 19.4715 7.45608 19.4715L16.5083 19.4716C17.6072 19.4592 18.6531 18.994 19.4025 18.1843C20.1519 17.3746 20.5392 16.2911 20.4731 15.141L20.4744 8.81383C20.5392 7.70881 20.1519 6.62527 19.4025 5.81556ZM17.9881 9.63539C18.2399 9.36249 18.262 8.9378 18.0239 8.63825C17.7621 8.30874 17.2846 8.25543 16.9575 8.51918L12.8582 11.8241L12.7407 11.9067C12.2573 12.2094 11.6227 12.1815 11.1597 11.818L7.03045 8.5172L6.93751 8.45349C6.61724 8.26716 6.2013 8.34019 5.96449 8.64074C5.70401 8.97134 5.75892 9.45204 6.08715 9.71442L10.2216 13.0194L10.3829 13.1374C11.423 13.8458 12.8012 13.8066 13.7987 13.0235L17.9057 9.71243L17.9881 9.63539Z" fill="black"/>
</svg>
