<svg width="24" height="24" viewBox="0 0 24 24" fill="none" xmlns="http://www.w3.org/2000/svg">
<path fill-rule="evenodd" clip-rule="evenodd" d="M5.20685 7.68096C5.50654 4.44456 8.59565 2 11.9648 2H12.0361C15.4034 2 18.4934 4.44285 18.8034 7.68536C18.8212 7.89148 18.8288 8.07458 18.8311 8.33206L18.8312 9.00516C18.8317 9.1274 18.833 9.22527 18.8358 9.31353L18.845 9.50977L18.8896 9.69688C19.0303 10.218 19.2776 10.7052 19.6162 11.1282L19.7669 11.3055L19.8286 11.3847C20.2348 11.9917 20.4668 12.698 20.5 13.4587L20.499 13.862C20.4707 14.763 20.1399 15.6331 19.5338 16.3582C18.7311 17.2101 17.6434 17.7393 16.4873 17.8457C13.502 18.1699 10.49 18.1699 7.51296 17.8466C6.34896 17.7346 5.26444 17.2069 4.42663 16.3223C3.80882 15.5691 3.48041 14.6208 3.5009 13.6624L3.50175 13.4242C3.53744 12.6955 3.76804 11.9898 4.16936 11.3802L4.23653 11.2938C4.70525 10.7799 5.02569 10.151 5.16473 9.47306L5.14969 9.53395L5.15213 8.99974L5.16444 8.40391C5.17324 8.14906 5.18686 7.91248 5.20685 7.68096ZM17.4308 7.81318C17.1945 5.34067 14.7337 3.39526 12.0362 3.39526H11.9649C9.26658 3.39526 6.8081 5.34078 6.57974 7.80669C6.56805 7.94219 6.55873 8.08199 6.55144 8.22911L6.53539 8.6955L6.52886 9.61478L6.51447 9.75658C6.32899 10.661 5.90786 11.5003 5.29422 12.1905L5.29863 12.1832L5.24936 12.2403C5.26443 12.2238 5.27938 12.2072 5.29422 12.1905L5.21052 12.329C5.04545 12.6264 4.93897 12.9494 4.89689 13.2682L4.87942 13.4586L4.87926 13.6773C4.86575 14.3142 5.08093 14.9355 5.45376 15.393C6.02888 15.9984 6.80689 16.3769 7.65175 16.4583C10.5394 16.7718 13.4528 16.7718 16.3514 16.4571C17.1871 16.3802 17.9646 16.0019 18.5085 15.4266C18.92 14.9329 19.1375 14.3096 19.1216 13.6535L19.1223 13.4901C19.1013 13.0185 18.9511 12.5612 18.6874 12.1671L18.7027 12.1925L18.5648 12.0308C18.0894 11.444 17.7441 10.7634 17.5518 10.0339L17.4869 9.75809L17.474 9.66542C17.4643 9.53004 17.4586 9.40973 17.4556 9.26505L17.4529 8.36041C17.451 8.13036 17.4448 7.9755 17.4308 7.81318ZM14.713 20.6716C14.9516 20.3714 14.9046 19.9323 14.608 19.6907C14.3114 19.4492 13.8776 19.4968 13.639 19.797C13.5356 19.9271 13.4158 20.0438 13.2826 20.1444C12.8308 20.4987 12.267 20.6565 11.7065 20.5898C11.1468 20.5231 10.638 20.2382 10.2928 19.7996C10.0556 19.4982 9.62195 19.4486 9.32423 19.6887C9.02652 19.9288 8.97745 20.3677 9.21464 20.6691C9.78706 21.3963 10.6258 21.866 11.5454 21.9755C12.4641 22.085 13.3892 21.8261 14.1168 21.2551C14.3328 21.0923 14.5366 20.8936 14.713 20.6716Z" fill="black"/>
</svg>
