<svg width="24" height="24" viewBox="0 0 24 24" fill="none" xmlns="http://www.w3.org/2000/svg">
<path fill-rule="evenodd" clip-rule="evenodd" d="M12.0042 12.6703C9.07015 12.6703 6.69165 10.2817 6.69165 7.33517C6.69165 4.38864 9.07015 2 12.0042 2C14.9382 2 17.3167 4.38864 17.3167 7.33517C17.3167 10.2817 14.9382 12.6703 12.0042 12.6703ZM12.0041 11.2228C14.1419 11.2228 15.8751 9.48227 15.8751 7.33526C15.8751 5.18825 14.1419 3.44775 12.0041 3.44775C9.86616 3.44775 8.13306 5.18825 8.13306 7.33526C8.13306 9.48227 9.86616 11.2228 12.0041 11.2228ZM4.28724 17.0999C4.79685 16.0763 5.99418 15.4603 7.4908 15.1521C8.26621 14.9859 9.05233 14.8749 9.83005 14.8209C11.2738 14.6935 12.7259 14.6935 14.1697 14.8209L14.6307 14.8599C15.2612 14.922 15.8873 15.0193 16.5034 15.1509C18.0737 15.4744 19.214 16.0482 19.7188 17.1127C20.0937 17.9047 20.0937 18.8241 19.7186 19.6164C19.2126 20.6836 18.0576 21.2622 16.5151 21.5665L16.0477 21.6636C15.4231 21.7835 14.7932 21.8653 14.1675 21.9081C12.9934 22.008 11.8138 22.0263 10.676 21.9637C10.5506 21.9637 10.4664 21.9632 10.3922 21.9615L10.248 21.9561C10.0726 21.9472 9.91189 21.9288 9.84446 21.909C9.05284 21.8552 8.26648 21.7406 7.51213 21.5704L7.25624 21.517C5.8278 21.1996 4.76994 20.6271 4.28062 19.6153C4.0953 19.2227 3.99944 18.7935 4.00002 18.3627C3.99839 17.9288 4.09503 17.5002 4.28724 17.0999ZM16.2088 16.5679C15.4992 16.4164 14.78 16.3149 14.0564 16.2639L14.0437 16.2629C12.6839 16.143 11.3162 16.143 9.94307 16.264C9.21975 16.3143 8.50087 16.4158 7.78619 16.569C6.67933 16.797 5.83306 17.2323 5.58132 17.7378C5.48861 17.9309 5.44086 18.1427 5.44167 18.3609C5.44138 18.5802 5.48977 18.7969 5.58037 18.9889C5.83928 19.5242 6.63784 19.9243 7.80788 20.1536L8.1604 20.2283C8.7508 20.3453 9.35886 20.426 10.0346 20.477C10.1199 20.4942 10.212 20.5047 10.3213 20.5103L10.7149 20.517C11.8251 20.5771 12.9381 20.5599 14.0577 20.4646C14.7793 20.4152 15.4961 20.3111 16.2196 20.1497L16.4446 20.1021C17.4721 19.8691 18.1831 19.4878 18.4171 18.9943C18.6058 18.5957 18.6058 18.133 18.4172 17.7347C18.1668 17.2066 17.3752 16.8082 16.2088 16.5679Z" fill="black"/>
</svg>
