<svg width="24" height="24" viewBox="0 0 24 24" fill="none" xmlns="http://www.w3.org/2000/svg">
<path d="M11.6112 2.00024C16.9195 2.00024 21.2225 6.20859 21.2225 11.3997C21.2225 13.8489 20.2638 16.0784 18.6942 17.7512L21.7821 20.7639C22.0714 21.0462 22.0725 21.5043 21.7841 21.7874C21.5217 22.0446 21.1102 22.0684 20.8202 21.8586L20.7372 21.7883L17.6102 18.7395C15.9657 20.0265 13.8813 20.7991 11.6112 20.7991C6.30305 20.799 1.99996 16.5906 1.99988 11.3997C1.99988 6.20866 6.303 2.00036 11.6112 2.00024ZM11.6112 3.44849C7.12073 3.44868 3.48041 7.00832 3.48035 11.3997C3.48035 15.791 7.12069 19.3506 11.6112 19.3508C16.1019 19.3508 19.743 15.7912 19.743 11.3997C19.743 7.0082 16.1019 3.44849 11.6112 3.44849Z" fill="black"/>
</svg>
