<svg width="20" height="22" viewBox="0 0 20 22" fill="none" xmlns="http://www.w3.org/2000/svg">
<path fill-rule="evenodd" clip-rule="evenodd" d="M10 14.3295C5.87199 14.3295 2.49451 11.1054 2.49451 7.16475C2.49451 3.22414 5.87199 0 10 0C14.1281 0 17.5055 3.22414 17.5055 7.16475C17.5055 11.1054 14.1281 14.3295 10 14.3295ZM10 12.6437C13.1568 12.6437 15.7395 10.1782 15.7395 7.16475C15.7395 4.15134 13.1568 1.68582 10 1.68582C6.84329 1.68582 4.26051 4.15134 4.26051 7.16475C4.26051 10.1782 6.84329 12.6437 10 12.6437Z" fill="#949292"/>
<path d="M1.25828 22C3.59823 19.7663 6.68874 18.5441 10 18.5441C13.3113 18.5441 16.4018 19.7663 18.7417 22L20 20.7989C17.3289 18.2701 13.7748 16.8582 10 16.8582C6.22517 16.8582 2.67108 18.2701 0 20.7989L1.25828 22Z" fill="#949292"/>
</svg>
