<?xml version="1.0" encoding="UTF-8"?>
<svg id="svg2" xmlns="http://www.w3.org/2000/svg" xmlns:xlink="http://www.w3.org/1999/xlink" xmlns:svg="http://www.w3.org/2000/svg" xmlns:rdf="http://www.w3.org/1999/02/22-rdf-syntax-ns#" xmlns:dc="http://purl.org/dc/elements/1.1/" xmlns:cc="http://creativecommons.org/ns#" version="1.1" viewBox="0 0 176.3 22.1">
  <!-- Generator: Adobe Illustrator 29.3.1, SVG Export Plug-In . SVG Version: 2.1.0 Build 151)  -->
  <defs>
    <style>
      .st0 {
        fill: #fff;
      }
    </style>
  </defs>
  <polygon class="st0" points="23.9 21.7 19.6 21.7 3.5 4.4 3.5 21.7 0 21.7 0 .6 4.4 .6 20.4 17.9 20.4 .6 23.9 .6 23.9 21.7"/>
  <polygon class="st0" points="53.1 21.7 31 21.7 31 .6 52.3 .6 52.3 3.8 34.5 3.8 34.5 9.2 46.9 9.2 46.9 12.3 34.5 12.3 34.5 18.6 53.1 18.6 53.1 21.7"/>
  <polygon class="st0" points="89.5 .6 82.6 21.7 78.1 21.7 72.9 4.1 67.6 21.7 63.1 21.7 56.1 .6 60.1 .6 65.4 18.2 70.7 .6 75.1 .6 80.3 18.3 85.6 .6 89.5 .6"/>
  <path class="st0" d="M112.4,5.6c-3.1-1.6-6.3-2.4-9.6-2.4s-3.8.2-5,.7c-1.1.5-1.7,1.2-1.7,2.1s.6,1.6,1.8,2.1c.9.3,2.3.6,4.3.6,2.9.2,4.8.4,5.8.4,2.6.4,4.6,1,5.8,2,1.3.9,1.9,2.3,1.9,4s-1,4-2.9,5.1c-2,1.2-4.8,1.8-8.5,1.8-5.3,0-9.6-1.2-12.5-3.6l1.9-2.6c3.3,2,6.8,3.1,10.7,3.1s4.4-.4,5.8-1c1.3-.6,2-1.6,2-2.7s-.9-2.2-2.6-2.6c-.9-.2-3.3-.5-7.2-.7-3.5-.2-5.9-.7-7.3-1.3-1.6-.9-2.5-2.1-2.5-4.1s.9-3.6,2.8-4.7c1.9-1.1,4.5-1.7,7.8-1.7s8.3,1,11.4,3.1l-2.2,2.4Z"/>
  <polygon class="st0" points="145.2 21.7 141.7 21.7 141.7 12.3 124.9 12.3 124.9 21.7 121.4 21.7 121.4 .6 124.9 .6 124.9 9.2 141.7 9.2 141.7 .6 145.2 .6 145.2 21.7"/>
  <path class="st0" d="M162.9,3.6l5.3,10.2h-10.8l5.5-10.2ZM160.7.6l-11.2,21.1h3.9l2.4-4.7h14.2l2.4,4.7h3.9L165.2.6h-4.5Z"/>
</svg>