<svg width="24" height="24" viewBox="0 0 24 24" fill="none" xmlns="http://www.w3.org/2000/svg">
<path d="M9.84082 4.74233C10.1609 4.41884 10.6782 4.41961 10.9971 4.74429C11.2869 5.03966 11.3125 5.50079 11.0742 5.82534L10.9951 5.91909L5.7998 11.1701H20.1816C20.6335 11.1701 21 11.5416 21 12.0001C20.9999 12.4204 20.6922 12.7674 20.293 12.8224L20.1816 12.8302H5.79785L10.9951 18.0812C11.3153 18.4048 11.3159 18.9301 10.9971 19.255C10.7072 19.5504 10.2534 19.5785 9.93262 19.338L9.84082 19.258L3.24023 12.589C3.23731 12.5861 3.23529 12.5822 3.23242 12.5792C3.20346 12.5491 3.17655 12.5169 3.15234 12.4826C3.14801 12.4764 3.1438 12.4702 3.13965 12.464C3.11744 12.4306 3.09837 12.3951 3.08105 12.3585C3.07644 12.3488 3.0716 12.3392 3.06738 12.3292C3.05185 12.2928 3.03962 12.2549 3.0293 12.216C3.02697 12.2072 3.0245 12.1985 3.02246 12.1896C3.01309 12.1489 3.00617 12.1073 3.00293 12.0646C3.00246 12.0584 3.00229 12.0522 3.00195 12.046C3.00113 12.0308 3 12.0156 3 12.0001C3 11.9877 3.0024 11.9753 3.00293 11.963C3.00422 11.9339 3.00644 11.905 3.01074 11.8761C3.01401 11.854 3.01752 11.8322 3.02246 11.8107C3.02855 11.7843 3.03626 11.7584 3.04492 11.7326C3.05218 11.7109 3.06041 11.6899 3.06934 11.6691C3.07903 11.6465 3.08979 11.6245 3.10156 11.6027C3.11412 11.5794 3.12796 11.5572 3.14258 11.5353C3.14905 11.5256 3.15421 11.5145 3.16113 11.505L3.18945 11.4718C3.19957 11.4594 3.20893 11.4465 3.21973 11.4347L3.24023 11.4123L9.84082 4.74233Z" fill="black"/>
</svg>
