<svg width="24" height="18" viewBox="0 0 24 18" fill="none" xmlns="http://www.w3.org/2000/svg">
<path fill-rule="evenodd" clip-rule="evenodd" d="M3.83057 4.30528C3.83315 4.30314 3.83523 4.30157 3.83823 4.29932L3.83575 4.30125L3.83057 4.30528ZM6.73159 1.40737C6.62322 1.51013 6.52357 1.60718 6.4269 1.70419C6.33003 1.7987 6.22599 1.90229 6.08705 2.04204C6.08705 2.04204 3.7982 4.33244 3.79055 4.33905C3.71954 4.40641 3.66045 4.46401 3.59919 4.5249C3.57104 4.55305 3.546 4.5778 3.49261 4.63032C3.4467 4.67548 3.42545 4.69645 3.39899 4.72277L1.32949 6.7946C1.28508 6.84067 1.24697 6.87947 1.19796 6.9287L1.14217 6.98478C1.07898 7.04809 1.02899 7.0996 0.95834 7.17329C0.796275 7.33321 0.631939 7.51406 0.477196 7.70372C0.333415 7.85703 0.217338 8.03424 0.134231 8.22748L0.112272 8.28594C-0.0374241 8.74937 -0.0374241 9.24816 0.112272 9.71159L0.135197 9.77229C0.218934 9.96505 0.335628 10.1416 0.479954 10.2941C0.634044 10.4835 0.79826 10.6644 0.971886 10.836C1.00841 10.8754 1.06223 10.9303 1.13412 11.0022C1.18377 11.0519 1.20513 11.0733 1.23175 11.1001C1.26613 11.1348 1.29585 11.1651 1.32344 11.1937L3.39839 13.2725C3.5012 13.3753 3.54722 13.421 3.62955 13.5013C3.69723 13.5682 3.73729 13.6072 3.81146 13.6756L6.0891 15.9565C6.25981 16.1273 6.3364 16.2035 6.43293 16.2983C6.55841 16.4239 6.64112 16.505 6.77032 16.6313C6.819 16.6826 6.83724 16.7015 6.86219 16.7247C7.15378 17.0177 7.50944 17.2767 7.89889 17.4754C8.28873 17.6717 8.70205 17.8081 9.12862 17.8818C9.52828 17.9476 9.9271 17.9828 10.3269 17.9878C10.4964 17.9916 10.6665 17.9939 10.8346 17.9945L11.2348 17.9945H18.6805C18.835 17.9945 18.9882 17.9923 19.2006 17.9877C19.598 17.9829 20.0008 17.9475 20.3992 17.8821C20.8343 17.8069 21.2505 17.6692 21.6397 17.4726C22.0341 17.2732 22.394 17.0123 22.706 16.6997C23.0167 16.3878 23.2765 16.0301 23.4767 15.6388C23.6748 15.2444 23.812 14.8274 23.8858 14.3971C23.9518 13.9938 23.9869 13.5912 23.9917 13.1878C23.9947 13.0887 23.9961 13.0014 23.9984 12.8071L24 12.6828L24.0001 12.0697V5.28228L23.9989 5.1749C23.9976 5.05516 23.997 5.00286 23.9958 4.93575C23.9947 4.87282 23.9934 4.81509 23.9918 4.75948C23.9873 4.37159 23.9525 3.97263 23.888 3.57797C23.8138 3.14595 23.6778 2.7325 23.4836 2.34562C23.2825 1.95254 23.0244 1.59745 22.7163 1.28846C22.4081 0.978056 22.051 0.718337 21.6595 0.520145C21.2732 0.324766 20.8603 0.187962 20.434 0.114105C20.0325 0.0487977 19.6336 0.0139583 19.2338 0.00872262C19.0528 0.00433858 18.8857 0.00199973 18.7251 0.00199973C18.563 0.000336839 18.4289 0 18.1279 0H11.4324C11.1336 0 10.9986 0.000338889 10.8292 0.00203305C10.6756 0.00199973 10.5091 0.00432366 10.3181 0.00885285C9.92594 0.0140027 9.5277 0.0488485 9.13367 0.112975C8.7003 0.188085 8.28703 0.324739 7.90046 0.519647C7.5081 0.719534 7.15225 0.978809 6.84371 1.28905C6.82941 1.30311 6.81895 1.31412 6.73159 1.40737ZM7.37126 15.3515C7.27429 15.2562 7.19956 15.1818 7.03198 15.0142L4.72997 12.7088C4.72997 12.7088 4.68405 12.667 4.67927 12.663C4.64375 12.6291 4.6132 12.5992 4.53688 12.5238C4.48179 12.4703 4.43893 12.4278 4.34135 12.3302L2.27471 10.2599C2.25047 10.2347 2.21671 10.2002 2.17842 10.1616C2.14997 10.1329 2.12699 10.1099 2.07666 10.0595C2.01337 9.99624 1.96793 9.94985 1.92557 9.90487C1.76375 9.74431 1.62675 9.59275 1.4986 9.43384L1.45468 9.38459C1.42077 9.35016 1.39238 9.31077 1.37044 9.26784C1.3204 9.09148 1.32053 8.90462 1.37083 8.72831C1.39279 8.68461 1.42134 8.64447 1.45552 8.60933L1.4959 8.56384C1.62476 8.4046 1.76234 8.25262 1.90801 8.1086C1.98605 8.02754 2.03116 7.98106 2.06527 7.94648L2.11069 7.90123L2.1426 7.86925C2.19682 7.81479 2.24019 7.77064 2.28181 7.72727L4.34061 5.66634C4.36321 5.64386 4.38235 5.62498 4.43645 5.57176C4.48323 5.52575 4.51031 5.49898 4.54032 5.46897C4.58676 5.42281 4.63243 5.37817 4.67729 5.33517C4.68714 5.32693 4.69862 5.31629 4.73129 5.28599L7.03128 2.983C7.16705 2.84643 7.2669 2.74703 7.36464 2.65158C7.45862 2.55736 7.54933 2.46901 7.64526 2.37803C7.66653 2.35818 7.67923 2.3449 7.73795 2.2826L7.78437 2.23356C7.99784 2.01895 8.2389 1.84331 8.503 1.70876C8.76969 1.57431 9.05746 1.47915 9.35449 1.42765C9.67671 1.37524 10.0093 1.34615 10.3426 1.34174C10.5308 1.33731 10.6871 1.33513 10.8357 1.33513C11.0059 1.33346 11.1379 1.33313 11.4323 1.33313H18.1277C18.4243 1.33313 18.5554 1.33346 18.7183 1.3351C18.8739 1.33513 19.0306 1.33732 19.2089 1.3416C19.5502 1.34611 19.8834 1.37522 20.2131 1.42881C20.5024 1.47897 20.7892 1.574 21.0574 1.70964C21.3214 1.8433 21.5625 2.01861 21.7712 2.22876C21.9824 2.44067 22.1586 2.6831 22.2943 2.94829C22.4273 3.21316 22.522 3.50119 22.5731 3.79841C22.6259 4.12177 22.6549 4.4541 22.6588 4.78721C22.6605 4.84879 22.6617 4.90101 22.6627 4.95865C22.6638 5.02193 22.6644 5.07235 22.6657 5.18922L22.6668 5.29025L22.6668 5.87984V12.668L22.6652 12.7913C22.663 12.9778 22.6617 13.0598 22.6587 13.1601C22.6545 13.5086 22.6252 13.8445 22.5708 14.1768C22.5201 14.4722 22.4243 14.7635 22.2874 15.036C22.1525 15.2998 21.9744 15.545 21.7619 15.7583C21.5504 15.9702 21.3059 16.1474 21.0381 16.2828C20.7671 16.4198 20.477 16.5157 20.1776 16.5674C19.8506 16.6211 19.5146 16.6506 19.1777 16.6547C18.9679 16.6593 18.8233 16.6614 18.6803 16.6614H10.8371C10.6799 16.6607 10.5178 16.6586 10.3498 16.6549C10.0107 16.6506 9.67865 16.6213 9.35022 16.5672C9.05844 16.5168 8.7707 16.4218 8.50154 16.2863C8.24018 16.1529 7.99858 15.977 7.78884 15.7667C7.77629 15.7544 7.75888 15.7364 7.73686 15.7132L7.73413 15.7103C7.68164 15.655 7.6698 15.6425 7.65739 15.6306L7.64241 15.6165C7.5662 15.545 7.49173 15.4719 7.37126 15.3515ZM11.8129 12.5249L11.8236 12.5356L14.515 9.84094L17.2087 12.5317L17.2138 12.5266C17.3236 12.6354 17.4738 12.6997 17.6346 12.6997C17.8764 12.6997 18.0944 12.5541 18.187 12.3306C18.2795 12.1072 18.2283 11.85 18.0573 11.679L18.0587 11.6777C18.0311 11.6501 18.0011 11.6255 17.9691 11.604L15.3592 8.99573L18.0561 6.2955L18.0491 6.28852C18.1578 6.17867 18.2222 6.02845 18.2222 5.86771C18.2222 5.62587 18.0765 5.40785 17.8531 5.3153C17.6297 5.22276 17.3725 5.27392 17.2015 5.44494C17.175 5.47137 17.1516 5.49967 17.1311 5.52941L14.5133 8.15045L11.9011 5.53989C11.8792 5.50672 11.8538 5.47543 11.8249 5.44659H11.8276C11.7153 5.33365 11.5627 5.27014 11.4035 5.27014C11.2442 5.27014 11.0916 5.33365 10.9794 5.44659C10.8083 5.61759 10.7572 5.87477 10.8497 6.0982C10.8801 6.17152 10.924 6.23646 10.9778 6.29064L10.9692 6.29919L13.6689 8.99587L11.0746 11.5934C11.0369 11.617 11.0015 11.645 10.9692 11.6774V11.676C10.8567 11.7882 10.7935 11.9406 10.7935 12.0995C10.7935 12.2584 10.8567 12.4107 10.9692 12.5229C11.1402 12.6939 11.3974 12.7451 11.6208 12.6525C11.694 12.6223 11.7588 12.5785 11.8129 12.5249Z" fill="black"/>
</svg>
