<svg width="24" height="24" viewBox="0 0 24 24" fill="none" xmlns="http://www.w3.org/2000/svg">
<path d="M2.51807 12.0008C2.51807 10.8985 3.41494 10 4.51891 10C5.62288 10 6.51976 10.8985 6.51976 12.0008C6.51976 13.1031 5.62288 14 4.51891 14C3.41494 14 2.51807 13.1031 2.51807 12.0008Z" fill="black"/>
<path d="M9.99951 12.0008C9.99951 10.8985 10.8964 10 12.0004 10C13.1043 10 14.0012 10.8985 14.0012 12.0008C14.0012 13.1031 13.1043 14 12.0004 14C10.8964 14 9.99951 13.1031 9.99951 12.0008Z" fill="black"/>
<path d="M17.48 12.0008C17.48 10.8985 18.3769 10 19.4808 10C20.5848 10 21.4817 10.8985 21.4817 12.0008C21.4817 13.1031 20.5848 14 19.4808 14C18.3769 14 17.48 13.1031 17.48 12.0008Z" fill="black"/>
</svg>
