<svg width="24" height="24" viewBox="0 0 24 24" fill="none" xmlns="http://www.w3.org/2000/svg">
<mask id="mask0_0_3320" style="mask-type:luminance" maskUnits="userSpaceOnUse" x="0" y="0" width="24" height="24">
<rect width="24" height="24" fill="white"/>
</mask>
<g mask="url(#mask0_0_3320)">
<path d="M15.2197 14.7199C15.079 14.8606 15 15.0513 15 15.2502C15 15.4492 15.079 15.6399 15.2197 15.7806C15.3603 15.9212 15.5511 16.0002 15.75 16.0002H18.25C18.4489 16.0002 18.6397 15.9212 18.7803 15.7806C18.921 15.6399 19 15.4492 19 15.2502C19 15.0513 18.921 14.8606 18.7803 14.7199C18.6397 14.5793 18.4489 14.5002 18.25 14.5002H15.75C15.5511 14.5002 15.3603 14.5793 15.2197 14.7199Z" fill="black"/>
<path fill-rule="evenodd" clip-rule="evenodd" d="M2.80546 5.80546C2.28973 6.32118 2 7.02066 2 7.75V16.25C2 16.9793 2.28973 17.6788 2.80546 18.1945C3.32118 18.7103 4.02065 19 4.75 19H19.25C19.9793 19 20.6788 18.7103 21.1945 18.1945C21.7103 17.6788 22 16.9793 22 16.25V7.75C22 7.02066 21.7103 6.32118 21.1945 5.80546C20.6788 5.28973 19.9793 5 19.25 5H4.75C4.02065 5 3.32118 5.28973 2.80546 5.80546ZM3.5 11H20.5V16.25C20.5 16.94 19.94 17.5 19.25 17.5H4.75C4.06 17.5 3.5 16.94 3.5 16.25V11ZM3.5 7.75C3.5 7.06 4.06 6.5 4.75 6.5H19.25C19.94 6.5 20.5 7.06 20.5 7.75V9.5H3.5V7.75Z" fill="black"/>
</g>
</svg>
